<svg xmlns="http://www.w3.org/2000/svg" viewBox="0 0 900 900">
  <defs>
    <linearGradient id="sky" x1="0" x2="1" y1="0" y2="1">
      <stop offset="0" stop-color="#bde7ff"/>
      <stop offset="1" stop-color="#f8d6a2"/>
    </linearGradient>
    <linearGradient id="hill" x1="0" x2="0" y1="0" y2="1">
      <stop offset="0" stop-color="#2f8a57"/>
      <stop offset="1" stop-color="#155136"/>
    </linearGradient>
  </defs>
  <rect width="900" height="900" fill="url(#sky)"/>
  <circle cx="720" cy="170" r="82" fill="#ffcb55"/>
  <path d="M0 530 C160 410 290 480 430 395 C570 310 690 350 900 245 L900 900 L0 900 Z" fill="#355f75"/>
  <path d="M0 610 C180 495 335 560 485 475 C650 380 760 440 900 365 L900 900 L0 900 Z" fill="url(#hill)"/>
  <path d="M0 715 C170 625 310 680 455 615 C610 545 735 590 900 515 L900 900 L0 900 Z" fill="#6fb05c"/>
  <path d="M238 900 L500 450 L762 900 Z" fill="#2d3138"/>
  <path d="M500 450 L424 582 L565 582 Z" fill="#f4f8fb"/>
  <path d="M406 900 L508 642 L604 900 Z" fill="#4a4f58"/>
  <path d="M80 815 C190 740 265 780 360 724 C460 665 540 690 650 632 C740 586 810 594 900 560 L900 900 L80 900 Z" fill="#19492f" opacity="0.55"/>
  <rect x="86" y="96" width="230" height="70" rx="16" fill="#ffffff" opacity="0.44"/>
  <rect x="575" y="710" width="190" height="34" rx="17" fill="#ffffff" opacity="0.32"/>
</svg>
